<svg width="187" height="170" viewBox="0 0 187 170" fill="none" xmlns="http://www.w3.org/2000/svg">
<path d="M177.474 5.13012C177.982 4.96381 178.488 4.96024 178.961 5.1001C179.439 5.24151 179.94 5.54699 180.377 6.06077C180.818 6.5792 181.168 7.28432 181.326 8.12395C181.485 8.96441 181.433 9.85399 181.174 10.6786L181.172 10.6892L134.42 161.192L134.42 161.194C134.183 161.957 133.792 162.595 133.327 163.069C132.866 163.539 132.361 163.82 131.888 163.95C131.42 164.079 130.955 164.071 130.515 163.938C130.127 163.821 129.725 163.597 129.354 163.24L129.197 163.079L92.7459 123.135L89.3076 119.365L85.6093 122.88L68.0704 139.546L70.6092 108.315L134.083 47.9985C134.716 47.4578 135.24 46.8213 135.644 46.1286C136.101 45.3446 136.406 44.4908 136.556 43.6162C136.688 42.8508 136.7 42.0663 136.592 41.2931L136.539 40.9625L136.471 40.6336C136.319 39.978 136.077 39.3364 135.743 38.7315L135.569 38.4322L135.379 38.1395C134.919 37.4662 134.338 36.8589 133.644 36.3632C132.85 35.7955 131.933 35.3913 130.944 35.1992C130.077 35.031 129.194 35.033 128.338 35.1981L127.974 35.2792C127.124 35.4915 126.341 35.8586 125.653 36.3417L41.6485 88.9368L6.86766 68.6576L6.86774 68.6566L6.67114 68.5319C6.21523 68.2147 5.78 67.7241 5.46203 67.0501C5.097 66.2763 4.92906 65.3423 5.02759 64.3792C5.12614 63.4161 5.47798 62.5455 5.98346 61.8771C6.48618 61.2124 7.08706 60.8135 7.64954 60.6301L7.65254 60.6293L177.471 5.13086L177.474 5.13012Z" fill="#F1F3F4" stroke="#2AABEE" stroke-width="10"/>
</svg>
