<svg width="163" height="156" viewBox="0 0 163 156" fill="none" xmlns="http://www.w3.org/2000/svg">
<path d="M0.0100708 57.9121L80.8315 82.5457L162.782 58.4895V127.777L80.7603 155.152L0.0100789 127.8L0.0100708 57.9121Z" fill="#9A6B23"/>
<path d="M76.0074 81.3619L81.0074 82.6351L86.0074 81.3619V153.936L81.0074 155.21L76.0074 153.936V81.3619Z" fill="#2E2A25"/>
<path d="M70.0677 34.6717L76.6755 32.6524L84.5677 34.6717L162.858 58.6092L80.754 83.2829L0 57.932L70.0677 34.6717Z" fill="#2E2A25"/>
<path d="M70.0537 2.20887L76.6615 0.189531L84.5537 2.20887L162.782 25.7089L80.5537 50.7089L0.0537109 25.7089L70.0537 2.20887Z" fill="#9A6B23"/>
<path d="M0.00747681 57.8952L81.0075 83.1452L162.805 58.5806L162.576 68.2782L81.0075 94.3952L0.00747681 68.1452V57.8952Z" fill="#2E2A25"/>
<path d="M0.0580139 62.0615L81.2588 86.0194L162.855 62.1087V71.1942L81.2588 97.2694L0.0580254 70.8685L0.0580139 62.0615Z" fill="#2E2A25"/>
<path d="M0.0909119 25.7089L80.7871 50.2089L162.55 25.7805V62.1057L80.7871 86.2922L0.0909119 62.1057V25.7089Z" fill="#9A6B23"/>
<path d="M85.9474 51.7638L85.9474 49.4404L85.9474 44.5062L160.057 24.9141L162.789 25.7064L162.838 29.7537L85.9474 51.7638Z" fill="#2E2A25"/>
<path d="M76.1553 51.8187L76.1553 49.5062L76.1553 44.5463L2.09399 25.0201L0.0729521 25.6899L0.0729487 29.7543L76.1553 51.8187Z" fill="#2E2A25"/>
<path d="M85.9011 153.964L85.9011 148.172L85.9011 146.765L160.011 123.646L162.743 124.438L162.792 128.485L85.9011 153.964Z" fill="#2E2A25"/>
<path d="M76.109 153.966L76.109 148.238L76.109 146.841L2.01684 123.74L0.0173873 124.422L0.0173905 128.419L76.109 153.966Z" fill="#2E2A25"/>
<path d="M76.111 44.5535L81.0669 45.7565L86.048 44.5535V84.9287L80.7814 86.6989L76.111 84.9287L76.111 44.5535Z" fill="#2E2A25"/>
<path d="M158.082 59.9106L162.796 58.4754L162.796 128.324L158.082 129.474V117.152V59.9106Z" fill="#2E2A25"/>
<path d="M158.128 29.457L162.843 28.7746L162.843 61.9918L158.128 63.4609V56.6785V29.457Z" fill="#2E2A25"/>
<path d="M4.45532 59.8076L0.00833416 58.4141V128.408L4.45532 129.405V111.486L4.45532 59.8076Z" fill="#2E2A25"/>
<path d="M4.50155 30.8792L0.0777574 29.6535L0.0777745 62.0438L4.50156 63.6123L4.50155 30.8792Z" fill="#2E2A25"/>
<path d="M76.5248 4.78056L76.6308 -3.69778e-06L1.63737 25.1742L1.5619 30.1756L76.5248 4.78056Z" fill="#2E2A25"/>
<path d="M76.4996 4.76714L76.6308 2.05341e-05L87.1357 2.84689L97.6537 6.02738L118.634 12.3884L160.547 25.0414L160.623 30.0428L76.4996 4.76714Z" fill="#2E2A25"/>
<path d="M30.4979 68.6251L40.0282 68.6252L40.0282 91.628L30.4979 90.5833L30.4979 68.6251Z" fill="#888885"/>
<path d="M34.007 67.5347L43.5535 68.0301L39.9854 68.6275L30.538 68.6275L34.007 67.5347Z" fill="#888885"/>
<path d="M40.0023 68.6158L43.5887 68.0301L43.5887 89.1436L40.0023 91.6498L40.0023 68.6158Z" fill="#5F5F5D"/>
</svg>
