<svg width="650" height="889" viewBox="0 0 650 889" fill="none" xmlns="http://www.w3.org/2000/svg">
<g clip-path="url(#clip0_0_1)">
<mask id="mask0_0_1" style="mask-type:luminance" maskUnits="userSpaceOnUse" x="278" y="171" width="372" height="372">
<path d="M649.349 237.524L344.524 171L278 475.825L582.825 542.349L649.349 237.524Z" fill="white"/>
</mask>
<g mask="url(#mask0_0_1)">
<path d="M375.592 188.344C375.592 188.344 366.607 221.807 339.303 216.916C339.303 216.916 367.022 220.816 359.08 267.809C359.08 267.809 364.397 223.91 395.478 229.381C395.478 229.381 371.834 225.347 375.592 188.344Z" fill="#FFFED7"/>
<path d="M375.592 188.344C375.592 188.344 366.607 221.807 339.303 216.916C339.303 216.916 367.022 220.816 359.08 267.809C359.08 267.809 364.397 223.91 395.478 229.381C395.478 229.381 371.834 225.347 375.592 188.344Z" stroke="url(#paint0_radial_0_1)" stroke-width="13" stroke-linecap="round" stroke-linejoin="round"/>
<path d="M616.766 309.312L616.768 309.311L604.258 295.085L592.326 300.756L440.18 253.191C435.34 251.679 430.127 253.977 427.98 258.571L355.686 413.238L338.82 421.255L351.509 435.609L351.519 435.604C352.452 436.759 353.645 437.734 355.079 438.408L523.811 517.733C529.002 520.173 535.181 517.821 537.436 512.548L619.391 320.902C621.171 316.738 619.939 312.105 616.766 309.312Z" fill="#A69FBF"/>
<path d="M616.766 309.312L616.768 309.311L604.258 295.085L592.326 300.756L440.18 253.191C435.34 251.679 430.127 253.977 427.98 258.571L355.686 413.238L338.82 421.255L351.509 435.609L351.519 435.604C352.452 436.759 353.645 437.734 355.079 438.408L523.811 517.733C529.002 520.173 535.181 517.821 537.436 512.548L619.391 320.902C621.171 316.738 619.939 312.105 616.766 309.312Z" stroke="#7F7699" stroke-width="13" stroke-linecap="round" stroke-linejoin="round"/>
<path d="M342.253 423.891L510.985 503.215C516.176 505.655 522.355 503.304 524.61 498.03L606.565 306.385C608.924 300.869 605.999 294.523 600.273 292.733L427.354 238.674C422.514 237.161 417.301 239.459 415.154 244.054L337.386 410.433C335.02 415.493 337.198 421.514 342.253 423.891Z" fill="url(#paint1_linear_0_1)"/>
<g opacity="0.6">
<path d="M587.104 330.43L514.25 500.348" stroke="white" stroke-width="13" stroke-linecap="round" stroke-linejoin="round"/>
</g>
<g opacity="0.6">
<path d="M338.82 421.255L405.228 281.914" stroke="white" stroke-width="13" stroke-linecap="round" stroke-linejoin="round"/>
</g>
<g opacity="0.4">
<path d="M410.848 362.324L405.739 372.923C403.74 377.071 398.869 378.961 394.595 377.249L383.673 372.873C378.967 370.987 376.84 365.51 379.042 360.942L384.151 350.343C386.15 346.195 391.021 344.305 395.295 346.017L406.217 350.393C410.923 352.279 413.05 357.756 410.848 362.324Z" fill="#A69FBF"/>
</g>
<g opacity="0.4">
<path d="M391.76 401.923L386.658 412.508C384.636 416.702 379.687 418.58 375.392 416.784L364.549 412.251C359.919 410.314 357.86 404.89 360.039 400.369L365.141 389.784C367.163 385.591 372.112 383.713 376.407 385.508L387.25 390.042C391.88 391.978 393.939 397.402 391.76 401.923Z" fill="#A69FBF"/>
</g>
<g opacity="0.4">
<path d="M557.716 370.252L553.078 381.051C551.234 385.347 546.34 387.437 541.962 385.797L530.958 381.676C526.277 379.923 524.01 374.614 525.983 370.021L530.619 359.224C532.463 354.928 537.356 352.839 541.734 354.478L552.738 358.596C557.421 360.348 559.688 365.658 557.716 370.252Z" fill="#A69FBF"/>
</g>
<g opacity="0.4">
<path d="M539.207 413.348L534.575 424.136C532.7 428.503 527.685 430.576 523.273 428.81L512.372 424.443C507.804 422.614 505.64 417.38 507.582 412.859L512.217 402.069C514.092 397.703 519.109 395.629 523.52 397.397L534.419 401.766C538.985 403.596 541.148 408.827 539.207 413.348Z" fill="#A69FBF"/>
</g>
<g opacity="0.4">
<path d="M521.084 455.554L516.451 466.344C514.556 470.757 509.46 472.821 505.028 470.969L494.197 466.443C489.705 464.565 487.606 459.383 489.528 454.908L494.161 444.119C496.056 439.705 501.152 437.641 505.583 439.494L516.414 444.02C520.907 445.897 523.005 451.08 521.084 455.554Z" fill="#A69FBF"/>
</g>
<g opacity="0.4">
<path d="M514.739 354.26L509.99 365.019C508.116 369.265 503.256 371.312 498.909 369.685L487.897 365.561C483.183 363.796 480.924 358.43 482.956 353.825L487.705 343.066C489.579 338.82 494.439 336.773 498.786 338.401L509.798 342.524C514.512 344.289 516.771 349.655 514.739 354.26Z" fill="#A69FBF"/>
</g>
<g opacity="0.4">
<path d="M496.219 396.219L491.477 406.961C489.572 411.277 484.589 413.308 480.209 411.553L469.306 407.184C464.707 405.34 462.551 400.052 464.552 395.519L469.294 384.778C471.199 380.461 476.182 378.43 480.562 380.186L491.465 384.555C496.064 386.398 498.22 391.687 496.219 396.219Z" fill="#A69FBF"/>
</g>
<g opacity="0.4">
<path d="M477.941 437.624L473.199 448.365C471.273 452.727 466.211 454.746 461.811 452.907L450.977 448.377C446.452 446.486 444.363 441.248 446.344 436.762L451.085 426.023C453.011 421.662 458.072 419.642 462.472 421.48L473.306 426.008C477.831 427.899 479.921 433.137 477.941 437.624Z" fill="#A69FBF"/>
</g>
<g opacity="0.4">
<path d="M470.312 337.679L465.508 348.414C463.62 352.634 458.776 354.66 454.445 353.039L443.434 348.917C438.703 347.146 436.448 341.749 438.512 337.138L443.317 326.403C445.206 322.184 450.05 320.159 454.38 321.78L465.389 325.902C470.12 327.673 472.374 333.068 470.312 337.679Z" fill="#A69FBF"/>
</g>
<g opacity="0.4">
<path d="M452.023 378.558L447.226 389.278C445.306 393.569 440.339 395.578 435.975 393.83L425.075 389.461C420.459 387.612 418.308 382.295 420.339 377.756L425.136 367.037C427.056 362.746 432.023 360.736 436.387 362.485L447.287 366.854C451.902 368.703 454.053 374.02 452.023 378.558Z" fill="#A69FBF"/>
</g>
<g opacity="0.4">
<path d="M433.824 419.231L429.027 429.947C427.086 434.283 422.042 436.281 417.659 434.449L406.826 429.923C402.285 428.025 400.199 422.758 402.21 418.266L407.006 407.55C408.947 403.214 413.991 401.216 418.374 403.048L429.207 407.574C433.749 409.472 435.834 414.739 433.824 419.231Z" fill="#A69FBF"/>
</g>
<g opacity="0.2">
<path d="M602.468 316.529L583.931 359.886C549.507 411.365 516.333 429.417 502.017 435.199C497.728 436.933 493.032 437.386 488.487 436.55C425.455 424.915 378.113 413.373 346.576 404.751C344.588 404.204 342.657 403.677 340.787 403.157L385.154 308.235C402.002 284.706 411.32 266.132 412.19 264.375C412.234 264.285 412.256 264.24 412.256 264.24C414.406 259.651 419.618 257.346 424.459 258.857L597.381 312.918C599.505 313.587 601.244 314.878 602.468 316.529Z" fill="#8585CC"/>
</g>
<path d="M342.253 423.891L510.985 503.215C516.176 505.655 522.355 503.304 524.61 498.03L606.565 306.385C608.924 300.869 605.999 294.523 600.273 292.733L427.354 238.674C422.514 237.161 417.301 239.459 415.154 244.054L337.386 410.433C335.02 415.493 337.198 421.514 342.253 423.891Z" stroke="#A19EAF" stroke-width="13" stroke-linecap="round" stroke-linejoin="round"/>
<path d="M342.253 423.891L510.985 503.215C516.176 505.655 522.355 503.304 524.61 498.03L606.565 306.385C608.924 300.869 605.999 294.523 600.273 292.733L427.354 238.674C422.514 237.161 417.301 239.459 415.154 244.054" stroke="#7F7699" stroke-width="13" stroke-linecap="round" stroke-linejoin="round"/>
<path d="M606.566 306.388L590.378 344.239L399.136 278.323L415.154 244.051C417.304 239.461 422.515 237.162 427.355 238.674L600.271 292.733C606 294.52 608.924 300.871 606.566 306.388Z" fill="#FF4D67"/>
<path d="M606.566 306.388L590.378 344.239L399.136 278.323L415.154 244.051C417.304 239.461 422.515 237.162 427.355 238.674L600.271 292.733C606 294.52 608.924 300.871 606.566 306.388Z" stroke="#9E1835" stroke-width="13" stroke-linecap="round" stroke-linejoin="round"/>
<g opacity="0.4">
<path d="M600.232 317.955L601.571 303.696C601.726 302.038 600.699 300.498 599.109 300.004L425.665 246.106C424.04 245.601 422.285 246.329 421.499 247.839C414.205 261.849 409.807 274.127 409.927 274.227" stroke="white" stroke-width="13" stroke-linecap="round" stroke-linejoin="round"/>
</g>
<path d="M619.391 320.9L603.178 358.808L590.378 344.238L606.566 306.388C608.032 302.953 607.455 299.197 605.429 296.422L616.767 309.312C619.937 312.106 621.171 316.742 619.391 320.9Z" fill="#B51845"/>
<path d="M619.391 320.9L603.178 358.808L590.378 344.238L606.566 306.388C608.032 302.953 607.455 299.197 605.429 296.422L616.767 309.312C619.937 312.106 621.171 316.742 619.391 320.9Z" stroke="#89102F" stroke-width="13" stroke-linecap="round" stroke-linejoin="round"/>
<path d="M531.603 518.078C529.157 518.975 526.366 518.933 523.814 517.734L355.082 438.406C353.646 437.734 352.454 436.761 351.52 435.606L351.507 435.606L338.819 421.257C339.734 422.341 340.886 423.247 342.251 423.892L510.982 503.213C513.849 504.563 517.019 504.448 519.663 503.193L531.603 518.078Z" fill="#7F7699"/>
<path d="M531.603 518.078C529.157 518.975 526.366 518.933 523.814 517.734L355.082 438.406C353.646 437.734 352.454 436.761 351.52 435.606L351.507 435.606L338.819 421.257C339.734 422.341 340.886 423.247 342.251 423.892L510.982 503.213C513.849 504.563 517.019 504.448 519.663 503.193L531.603 518.078Z" stroke="#7F7699" stroke-width="13" stroke-linecap="round" stroke-linejoin="round"/>
<path d="M568.257 282.723C578.584 250.373 553.436 236.292 536.795 257.427C522.772 275.237 522.719 296.143 525.622 300.659C529.47 306.645 543.412 303.008 544.668 295.593C546.17 286.716 547.135 281.648 550.934 275.217C555.277 267.865 555.62 275.664 554.545 278.436L568.257 282.723Z" fill="url(#paint2_linear_0_1)"/>
<g opacity="0.85">
<path d="M524.199 289.497C524.199 289.497 532.131 256.816 551.407 254.768C569.758 252.819 562.885 280.351 562.885 280.351" stroke="white" stroke-width="13" stroke-linecap="round" stroke-linejoin="round"/>
</g>
<path d="M483.293 256.161C493.621 223.811 468.472 209.73 451.831 230.865C437.808 248.675 437.756 269.582 440.658 274.097C444.506 280.083 458.449 276.446 459.704 269.031C461.207 260.154 462.171 255.086 465.971 248.655C470.314 241.303 470.657 249.102 469.582 251.874L483.293 256.161Z" fill="url(#paint3_linear_0_1)"/>
<g opacity="0.85">
<path d="M439.218 263.186C439.218 263.186 448.323 227.613 467.944 228.209C484.785 228.721 477.529 253.118 477.529 253.118" stroke="white" stroke-width="13" stroke-linecap="round" stroke-linejoin="round"/>
</g>
<path d="M568.257 282.723C578.584 250.373 553.436 236.292 536.795 257.427C522.772 275.237 522.719 296.143 525.622 300.659C529.47 306.645 543.412 303.008 544.668 295.593C546.17 286.716 547.135 281.648 550.934 275.217C555.277 267.865 555.62 275.664 554.545 278.436L568.257 282.723Z" stroke="#BC5900" stroke-width="13" stroke-linecap="round" stroke-linejoin="round"/>
<path d="M483.293 256.161C493.621 223.811 468.472 209.73 451.831 230.865C437.808 248.675 437.756 269.582 440.658 274.097C444.506 280.083 458.449 276.446 459.704 269.031C461.207 260.154 462.171 255.086 465.971 248.655C470.314 241.303 470.657 249.102 469.582 251.874L483.293 256.161Z" stroke="#BC5900" stroke-width="13" stroke-linecap="round" stroke-linejoin="round"/>
<path d="M554.545 278.436L576.526 285.307" stroke="#9E1835" stroke-width="13" stroke-linecap="round" stroke-linejoin="round"/>
<path d="M469.582 251.874L502.938 262.303" stroke="#9E1835" stroke-width="13" stroke-linecap="round" stroke-linejoin="round"/>
<path d="M525.622 300.659C529.47 306.645 543.412 303.009 544.668 295.594C546.17 286.716 547.135 281.648 550.934 275.217C555.277 267.865 555.621 275.664 554.546 278.436" stroke="#9E4000" stroke-width="13" stroke-linecap="round" stroke-linejoin="round"/>
<path d="M440.658 274.097C444.506 280.083 458.449 276.447 459.704 269.032C461.207 260.154 462.171 255.086 465.971 248.655C470.314 241.303 470.658 249.102 469.582 251.874" stroke="#9E4000" stroke-width="13" stroke-linecap="round" stroke-linejoin="round"/>
<path d="M600.275 292.733L427.353 238.672C422.515 237.16 417.301 239.461 415.153 244.052C415.153 244.052 415.133 244.098 415.087 244.19C413.339 247.726 377.431 319.238 314.844 362.336C309.933 365.718 311.034 373.254 316.725 375.033C324.495 377.461 335.414 380.721 349.474 384.562C381.01 393.187 428.353 404.727 491.386 416.362C495.931 417.201 500.628 416.744 504.914 415.013C521.957 408.128 565.749 383.846 606.534 306.448C606.557 306.405 606.578 306.361 606.597 306.316C608.901 300.815 605.976 294.517 600.275 292.733Z" fill="white"/>
<path d="M606.568 306.383C599.946 318.96 593.239 330.13 586.585 340.056L394.66 278.526L394.653 278.525C407.331 259.668 414.336 245.698 415.087 244.19C415.133 244.098 415.153 244.052 415.153 244.052C417.301 239.461 422.514 237.161 427.352 238.672L600.275 292.733C605.999 294.525 608.925 300.866 606.568 306.383Z" fill="#FF4D67"/>
<g opacity="0.4">
<path d="M600.232 317.954L601.571 303.696C601.726 302.038 600.699 300.498 599.109 300.004L425.665 246.106C424.04 245.601 422.285 246.328 421.499 247.838C414.205 261.849 376.984 328.995 312.69 371.824" stroke="white" stroke-width="13" stroke-linecap="round" stroke-linejoin="round"/>
</g>
<path d="M600.275 292.733L427.353 238.672C422.515 237.16 417.301 239.461 415.153 244.052C415.153 244.052 415.133 244.098 415.087 244.19C413.339 247.726 377.431 319.238 314.844 362.336C309.933 365.718 311.034 373.254 316.725 375.033C324.495 377.461 335.414 380.721 349.474 384.562C381.01 393.187 428.353 404.727 491.386 416.362C495.931 417.201 500.628 416.744 504.914 415.013C521.957 408.128 565.749 383.846 606.534 306.448C606.557 306.405 606.578 306.361 606.597 306.316C608.901 300.815 605.976 294.517 600.275 292.733Z" stroke="#9591AF" stroke-width="13" stroke-linecap="round" stroke-linejoin="round"/>
<path d="M606.568 306.383C599.946 318.96 593.239 330.13 586.585 340.056L394.66 278.526L394.653 278.525C407.331 259.668 414.336 245.698 415.087 244.19C415.133 244.098 415.153 244.052 415.153 244.052C417.301 239.461 422.514 237.161 427.352 238.672L600.275 292.733C605.999 294.525 608.925 300.866 606.568 306.383Z" stroke="#9E1835" stroke-width="13" stroke-linecap="round" stroke-linejoin="round"/>
<path d="M568.257 282.723C578.584 250.373 553.436 236.292 536.795 257.427C522.772 275.237 522.719 296.143 525.622 300.659C529.47 306.645 543.412 303.008 544.668 295.593C546.17 286.716 547.135 281.648 550.934 275.217C555.277 267.865 555.62 275.664 554.545 278.436L568.257 282.723Z" fill="url(#paint4_linear_0_1)"/>
<g opacity="0.85">
<path d="M524.199 289.497C524.199 289.497 532.131 256.816 551.407 254.768C569.758 252.819 562.885 280.351 562.885 280.351" stroke="white" stroke-width="13" stroke-linecap="round" stroke-linejoin="round"/>
</g>
<path d="M483.293 256.161C493.621 223.811 468.472 209.73 451.831 230.865C437.808 248.675 437.756 269.582 440.658 274.097C444.506 280.083 458.449 276.446 459.704 269.031C461.207 260.154 462.171 255.086 465.971 248.655C470.314 241.303 470.657 249.102 469.582 251.874L483.293 256.161Z" fill="url(#paint5_linear_0_1)"/>
<g opacity="0.85">
<path d="M439.218 263.186C439.218 263.186 448.323 227.613 467.944 228.209C484.785 228.721 477.529 253.118 477.529 253.118" stroke="white" stroke-width="13" stroke-linecap="round" stroke-linejoin="round"/>
</g>
<path d="M568.257 282.723C578.584 250.373 553.436 236.292 536.795 257.427C522.772 275.237 522.719 296.143 525.622 300.659C529.47 306.645 543.412 303.008 544.668 295.593C546.17 286.716 547.135 281.648 550.934 275.217C555.277 267.865 555.62 275.664 554.545 278.436L568.257 282.723Z" stroke="#BC5900" stroke-width="13" stroke-linecap="round" stroke-linejoin="round"/>
<path d="M483.293 256.161C493.621 223.811 468.472 209.73 451.831 230.865C437.808 248.675 437.756 269.582 440.658 274.097C444.506 280.083 458.449 276.446 459.704 269.031C461.207 260.154 462.171 255.086 465.971 248.655C470.314 241.303 470.657 249.102 469.582 251.874L483.293 256.161Z" stroke="#BC5900" stroke-width="13" stroke-linecap="round" stroke-linejoin="round"/>
<path d="M554.545 278.436L576.526 285.307" stroke="#9E1835" stroke-width="13" stroke-linecap="round" stroke-linejoin="round"/>
<path d="M469.582 251.874L502.938 262.303" stroke="#9E1835" stroke-width="13" stroke-linecap="round" stroke-linejoin="round"/>
<path d="M525.622 300.659C529.47 306.645 543.412 303.009 544.668 295.594C546.17 286.716 547.135 281.648 550.934 275.217C555.277 267.865 555.621 275.664 554.546 278.436" stroke="#9E4000" stroke-width="13" stroke-linecap="round" stroke-linejoin="round"/>
<path d="M440.658 274.097C444.506 280.083 458.449 276.447 459.704 269.032C461.207 260.154 462.171 255.086 465.971 248.655C470.314 241.303 470.658 249.102 469.582 251.874" stroke="#9E4000" stroke-width="13" stroke-linecap="round" stroke-linejoin="round"/>
<g opacity="0.7">
<path d="M429.671 314.93C435.844 314.671 442.243 314.731 448.787 315.14C497.044 318.16 537.389 339.297 533.589 361.756C530.369 380.786 497.062 396.801 448.806 393.781C400.549 390.761 354.044 373.098 358.835 350.821C363.526 329.007 398.243 326.028 422.074 330.632" stroke="#B5FF00" stroke-width="13" stroke-linecap="round" stroke-linejoin="round"/>
</g>
<path d="M404.079 335.689C419.084 329.705 434.549 307.984 409.125 308.036C403.491 307.495 381.417 332.285 377.031 335.291C364.747 348.626 345.371 359.78 354.344 363.635C369.753 369.457 404.172 356.774 404.079 335.689ZM411.08 321.146C408.239 326.992 398.586 329.179 393.872 329.793L405.66 318.599C408.465 319.125 410.794 319.46 411.08 321.146ZM387.512 349.359C382.764 354.282 373.177 354.932 368.01 354.352C370.906 351.603 374.813 347.894 382.59 340.507C389.906 340.149 397.233 340.767 387.512 349.359Z" fill="#843DF4"/>
<path d="M419.577 354.276C423.542 355.614 433.198 347.531 427.492 344.381C417.243 341.75 414.271 338.159 407.719 344.274C400.437 352.493 413.369 351.455 419.577 354.276Z" fill="#843DF4"/>
<path d="M458.677 360.351C473.114 348.265 474.328 329.363 461.709 324.29C455.605 320.166 415.573 369.491 411.728 371.269C402.28 386.556 443.79 377.941 458.677 360.351ZM459.205 345.793C455.762 358.426 431.949 370.404 425.088 368.687C429.974 363.55 449.812 342.687 456.238 335.93C458.526 338.017 460.515 341.252 459.205 345.793Z" fill="#843DF4"/>
<path d="M502.623 339.005C495.776 332.247 492.408 336.56 466.255 357.426C451.717 371.477 443.098 374.992 440.717 383.234C445.774 391.47 454.234 376.843 466.763 367.139C466.762 367.137 478.541 370.362 478.541 370.362C473.066 378.625 467.902 385.692 467.665 386.014C463.018 393.189 473.248 393.691 476.257 388.239C478.794 385.431 507.911 342.807 502.623 339.005ZM491.821 347.122C491.198 349.058 489.488 352.974 484.843 360.514L476.967 358.289C485.259 351.312 489.655 348.361 491.821 347.122Z" fill="#843DF4"/>
<path d="M540.314 350.834C535.446 342.336 528.649 356.991 513.803 366.885C513.282 360.101 517.205 350.27 518.954 346.703C521.913 339.031 511.319 341.47 509.615 346.489C509.527 346.66 501.212 363.192 503.707 374.108C496.757 380.603 480.976 383.514 478.512 392.11C478.576 395.298 482.084 395.767 484.603 394.37C520.915 374.055 537.494 359.512 540.314 350.834Z" fill="#843DF4"/>
<path d="M492.92 417.009C470.345 416.136 357.578 388.408 311.249 372.06C311.909 371.892 310.886 372.293 311.184 372.358C373.988 393.237 469.712 414.751 493.218 417.074C493.218 417.074 492.855 417.307 492.92 417.009Z" fill="url(#paint6_linear_0_1)"/>
<path d="M492.92 417.009C470.345 416.136 357.578 388.408 311.249 372.06C311.909 371.892 310.886 372.293 311.184 372.358C373.988 393.237 469.712 414.751 493.218 417.074C493.218 417.074 492.855 417.307 492.92 417.009Z" stroke="#9591AF" stroke-width="13" stroke-linecap="round" stroke-linejoin="round"/>
</g>
</g>
<g clip-path="url(#clip1_0_1)">
<mask id="mask1_0_1" style="mask-type:luminance" maskUnits="userSpaceOnUse" x="0" y="216" width="326" height="326">
<path d="M241.846 216L0 299.945L83.9447 541.79L325.79 457.846L241.846 216Z" fill="white"/>
</mask>
<g mask="url(#mask1_0_1)">
<path d="M195.735 468.891L195.492 361.38L249.081 321.916L195.735 468.891Z" stroke="#32ABFE" stroke-width="2.12" stroke-linecap="round" stroke-linejoin="round"/>
<path d="M195.735 468.891L195.492 361.38L249.081 321.916L195.735 468.891Z" fill="#32ABFE"/>
<path d="M195.735 468.891L110.566 387.842L195.492 361.38L195.735 468.891Z" stroke="#76D8FF" stroke-width="2.12" stroke-linecap="round" stroke-linejoin="round"/>
<path d="M195.735 468.891L110.566 387.842L195.492 361.38L195.735 468.891Z" fill="#76D8FF"/>
<path d="M195.735 468.891L110.566 387.842L56.562 381.867L195.735 468.891Z" stroke="#50B9F5" stroke-width="2.12" stroke-linecap="round" stroke-linejoin="round"/>
<path d="M195.735 468.891L110.566 387.842L56.562 381.867L195.735 468.891Z" fill="#50B9F5"/>
<path d="M211.381 280.438L249.093 321.921L229.504 299.267L211.381 280.438Z" stroke="#3E6BBE" stroke-width="2.12" stroke-linecap="round" stroke-linejoin="round"/>
<path d="M211.381 280.438L249.093 321.921L229.504 299.267L211.381 280.438Z" fill="#3E6BBE"/>
<path d="M83.7011 341.541L56.5703 381.854L110.546 387.835L83.7011 341.541Z" stroke="#73C9F9" stroke-width="2.12" stroke-linecap="round" stroke-linejoin="round"/>
<path d="M83.7011 341.541L56.5703 381.854L110.546 387.835L83.7011 341.541Z" fill="#73C9F9"/>
<path d="M140.449 333.154L110.546 387.835L195.503 361.386L140.449 333.154Z" stroke="#61B6F5" stroke-width="2.12" stroke-linecap="round" stroke-linejoin="round"/>
<path d="M140.449 333.154L110.546 387.835L195.503 361.386L140.449 333.154Z" fill="#61B6F5"/>
<path d="M197.562 306.042L195.503 361.386L249.093 321.921L197.562 306.042Z" stroke="#75C3FD" stroke-width="2.12" stroke-linecap="round" stroke-linejoin="round"/>
<path d="M197.562 306.042L195.503 361.386L249.093 321.921L197.562 306.042Z" fill="#75C3FD"/>
<path d="M195.503 361.386L197.562 306.042L140.449 333.154L195.503 361.386Z" fill="#67BAF9"/>
<path d="M110.546 387.835L83.7011 341.541L140.449 333.154L110.546 387.835Z" fill="#B9E6FF"/>
<path d="M56.5703 381.854L68.9671 325.047L83.7011 341.541L56.5703 381.854Z" fill="#5EAFEA"/>
<path d="M249.093 321.921L197.562 306.042L211.381 280.438L249.093 321.921Z" fill="#6BB8F3"/>
<path d="M70.8599 323.612L82.9348 340.714L137.544 333.602L194.594 307.493L210.536 281.869L173.12 276.603L111.31 294.982L70.8599 323.612Z" fill="#C7E9FF"/>
<path d="M70.8599 323.612L82.9348 340.714L137.544 333.602L194.594 307.493L210.536 281.869L173.12 276.603L111.31 294.982L70.8599 323.612Z" stroke="#C7EAFF" stroke-width="2.00837" stroke-linecap="round" stroke-linejoin="round"/>
<mask id="mask2_0_1" style="mask-type:luminance" maskUnits="userSpaceOnUse" x="-13" y="199" width="347" height="346">
<path d="M-12.1541 288.045L244.202 199.063L333.184 455.42L76.8273 544.401L-12.1541 288.045Z" fill="white"/>
</mask>
<g mask="url(#mask2_0_1)">
<g opacity="0.38">
<path d="M249.522 321.423L228.225 297.982L210.39 280.443L194.951 278.731L171.426 275.987L139.367 286.094L108.805 295.562L89.3774 310.282L69.7118 324.653L64.1686 350.877L57.1795 381.879L80.0285 396.004L195.909 469.043L243.366 338.105L249.522 321.423ZM235.976 327.224L230.754 341.375L190.411 452.689L91.909 390.611L72.4828 378.607L78.4439 352.248L83.1375 329.964L99.8519 317.755L116.367 305.227L142.34 297.196L169.606 288.596L189.608 290.923L202.724 292.39L217.876 307.278L235.976 327.224Z" fill="#0068FF"/>
</g>
</g>
<mask id="mask3_0_1" style="mask-type:luminance" maskUnits="userSpaceOnUse" x="-13" y="199" width="347" height="346">
<path d="M-12.1541 288.045L244.202 199.063L333.184 455.42L76.8273 544.401L-12.1541 288.045Z" fill="white"/>
</mask>
<g mask="url(#mask3_0_1)">
<g opacity="0.6">
<g opacity="0.6">
<path d="M203.891 294.845L194.485 308.102L196.743 307.009L196.741 307.104L203.784 294.921L203.869 294.766L203.891 294.845Z" fill="white"/>
</g>
</g>
</g>
<mask id="mask4_0_1" style="mask-type:luminance" maskUnits="userSpaceOnUse" x="-13" y="199" width="347" height="346">
<path d="M-12.1541 288.045L244.202 199.063L333.184 455.42L76.8273 544.401L-12.1541 288.045Z" fill="white"/>
</mask>
<g mask="url(#mask4_0_1)">
<path d="M249.49 321.436L228.193 297.995L210.358 280.456L194.919 278.743L171.394 275.999L139.335 286.107L108.773 295.575L89.3454 310.295L69.6798 324.666L64.1366 350.89L57.1475 381.892L79.9965 396.017L195.877 469.056L243.334 338.117L249.49 321.436Z" stroke="#0058AF" stroke-width="8.48" stroke-linecap="round" stroke-linejoin="round"/>
</g>
<mask id="mask5_0_1" style="mask-type:luminance" maskUnits="userSpaceOnUse" x="-13" y="199" width="347" height="346">
<path d="M-12.1541 288.045L244.202 199.063L333.184 455.42L76.8273 544.401L-12.1541 288.045Z" fill="white"/>
</mask>
<g mask="url(#mask5_0_1)">
<g opacity="0.6">
<path d="M83.877 386.205L112.11 389.06L197.642 362.895L229.021 337.382L195.809 359.413L111.798 386.408L83.877 386.205Z" fill="white"/>
</g>
</g>
<mask id="mask6_0_1" style="mask-type:luminance" maskUnits="userSpaceOnUse" x="-31" y="170" width="346" height="346">
<path d="M-30.4397 259.608L225.917 170.627L314.898 426.983L58.5418 515.965L-30.4397 259.608Z" fill="white"/>
</mask>
<g mask="url(#mask6_0_1)">
<path d="M146.055 332.069C146.055 332.069 146.263 332.489 145.857 332.626C145.857 332.626 146.214 332.437 146.353 332.853C146.353 332.853 146.177 332.493 146.564 332.349C146.564 332.349 146.225 332.557 146.055 332.069Z" fill="white"/>
</g>
</g>
</g>
<g clip-path="url(#clip2_0_1)">
<mask id="mask7_0_1" style="mask-type:luminance" maskUnits="userSpaceOnUse" x="0" y="0" width="583" height="583">
<path d="M506.308 0L0 76.1345L76.1345 582.442L582.442 506.308L506.308 0Z" fill="white"/>
</mask>
<g mask="url(#mask7_0_1)">
<path d="M453.27 461.639C453.27 461.639 441.135 449.599 435.384 447.307C434.645 447.013 434.012 446.879 433.523 446.952L313.05 465.068L192.579 483.183C188.284 483.829 184.648 486.694 183.016 490.719L178.023 503.029C177.499 504.32 177.333 505.729 177.54 507.106L178.866 516.223C181.184 523.202 191.808 520.972 192.997 520.793L444.183 483.021C445.372 482.843 457.117 481.675 456.338 475.08L454.931 465.394C454.724 464.017 454.151 462.719 453.27 461.639Z" fill="url(#paint7_linear_0_1)"/>
<g opacity="0.5">
<path d="M228.15 496.671L186.203 488.588L185.235 488.401L212.192 482.38L228.15 496.671Z" fill="#550E00"/>
</g>
<g opacity="0.5">
<path d="M177.351 504.889L189.236 507.501C189.236 507.501 192.306 508.011 193.035 507.905L440.936 471.543C441.836 471.41 442.697 471.084 443.457 470.585L454.612 463.268C454.612 463.268 455.715 470.618 456.245 475.101C456.328 480.544 449.934 481.914 445.972 482.608C445.224 482.739 444.562 482.846 444.048 482.951C440.807 483.617 196.128 520.594 192.998 520.799C183.666 521.411 179.832 520.092 179.086 516.492C178.781 515.022 178.013 510.252 178.013 510.252L177.869 509.088L177.351 504.889Z" fill="#550E00"/>
</g>
<g opacity="0.5">
<path d="M190.844 507.838C190.844 507.838 192.707 519.179 193.08 520.86C191.148 521.376 180.931 522.548 179.099 516.543C178.342 514.059 178.013 510.252 178.013 510.252L177.552 507.188L177.22 504.98L189.628 507.583L190.844 507.838Z" fill="#550E00"/>
</g>
<path d="M443.457 470.585L445.311 482.701C445.311 482.701 456.632 482.036 456.37 474.922C456.267 472.161 455.773 469.941 455.534 469.011C455.456 468.706 455.404 468.54 455.404 468.54L454.612 463.268L443.457 470.585Z" fill="#BF6121"/>
<path d="M453.27 461.639C453.27 461.639 441.135 449.599 435.384 447.307C434.645 447.013 434.012 446.879 433.523 446.952L313.05 465.068L192.579 483.183C188.284 483.829 184.648 486.694 183.016 490.719L178.023 503.029C177.499 504.32 177.333 505.729 177.54 507.106L178.866 516.223C181.184 523.202 191.808 520.972 192.997 520.793L444.183 483.021C445.372 482.843 457.117 481.675 456.338 475.08L454.931 465.394C454.724 464.017 454.151 462.719 453.27 461.639Z" stroke="#550E00" stroke-width="8.59859" stroke-linecap="round" stroke-linejoin="round"/>
<path d="M407.162 392.398C406.305 387.004 401.263 383.315 395.863 384.127L211.69 411.821C206.29 412.633 202.555 417.642 203.322 423.05C205.562 438.817 210.365 469.74 211.794 478.907C212.056 480.586 212.997 482.072 214.397 483.034L226.996 491.687C228.255 492.552 229.796 492.907 231.307 492.679L400.893 467.178C402.404 466.951 403.773 466.159 404.722 464.962L414.219 452.987C415.275 451.655 415.736 449.958 415.491 448.277C414.636 442.372 412.47 427.463 410.368 413.388C409.2 405.572 408.053 398.013 407.162 392.398Z" fill="url(#paint8_linear_0_1)"/>
<path d="M407.162 392.398C406.305 387.004 401.263 383.315 395.863 384.127L211.69 411.821C206.29 412.633 202.555 417.642 203.322 423.05C205.562 438.817 210.365 469.74 211.794 478.907C212.056 480.586 212.997 482.072 214.397 483.034L226.996 491.687C228.255 492.552 229.796 492.907 231.307 492.679L400.893 467.178C402.404 466.951 403.773 466.159 404.722 464.962L414.219 452.987C415.275 451.655 415.736 449.958 415.491 448.277C414.636 442.372 412.47 427.463 410.368 413.388C409.2 405.572 408.053 398.013 407.162 392.398Z" stroke="#550E00" stroke-width="8.59859" stroke-linecap="round" stroke-linejoin="round"/>
<path d="M415.495 448.276C415.737 449.957 415.275 451.657 414.215 452.991L404.723 464.962C403.773 466.159 402.403 466.952 400.894 467.179L399.661 467.365L391.57 413.556C391.332 411.972 389.853 410.879 388.269 411.117L407.157 392.395C408.302 399.58 409.861 409.944 411.345 419.958C413.11 431.87 414.769 443.288 415.495 448.276Z" fill="#BF6121"/>
<path d="M415.495 448.276C415.737 449.957 415.275 451.657 414.215 452.991L404.723 464.962C403.773 466.159 402.403 466.952 400.894 467.179L399.661 467.365L391.57 413.556C391.332 411.972 389.853 410.879 388.269 411.117L407.157 392.395C408.302 399.58 409.861 409.944 411.345 419.958C413.11 431.87 414.769 443.288 415.495 448.276Z" stroke="#BF6E2C" stroke-width="8.59859" stroke-linecap="round" stroke-linejoin="round"/>
<path d="M225.583 435.581C223.999 435.819 222.907 437.298 223.145 438.882L231.236 492.691C229.745 492.894 228.235 492.534 226.999 491.687L218.85 481.681C217.455 480.717 212.06 480.585 211.797 478.907C210.364 469.741 205.562 438.819 203.321 423.047L225.583 435.581Z" fill="#672600"/>
<path d="M225.583 435.581C223.999 435.819 222.907 437.298 223.145 438.882L231.236 492.691C229.745 492.894 228.235 492.534 226.999 491.687L218.85 481.681C217.455 480.717 212.06 480.585 211.797 478.907C210.364 469.741 205.562 438.819 203.321 423.047L225.583 435.581Z" stroke="#631F04" stroke-width="8.59859" stroke-linecap="round" stroke-linejoin="round"/>
<path d="M407.162 392.398C406.305 387.004 401.263 383.315 395.863 384.127L211.69 411.821C206.29 412.633 202.555 417.642 203.322 423.05C205.562 438.817 210.365 469.74 211.794 478.907C212.056 480.586 212.997 482.072 214.397 483.034L226.996 491.687C228.255 492.552 229.796 492.907 231.307 492.679L400.893 467.178C402.404 466.951 403.773 466.159 404.722 464.962L414.219 452.987C415.275 451.655 415.736 449.958 415.491 448.277C414.636 442.372 412.47 427.463 410.368 413.388C409.2 405.572 408.053 398.013 407.162 392.398Z" stroke="#550E00" stroke-width="8.59859" stroke-linecap="round" stroke-linejoin="round"/>
<path d="M399.665 467.363L231.236 492.69L223.145 438.881C222.906 437.295 223.999 435.816 225.584 435.577L388.27 411.114C389.855 410.875 391.335 411.968 391.573 413.554L399.665 467.363Z" fill="url(#paint9_linear_0_1)"/>
<path d="M399.665 467.363L231.236 492.69L223.145 438.881C222.906 437.295 223.999 435.816 225.584 435.577L388.27 411.114C389.855 410.875 391.335 411.968 391.573 413.554L399.665 467.363Z" stroke="#672600" stroke-width="8.59859" stroke-linecap="round" stroke-linejoin="round"/>
<g opacity="0.2">
<path d="M391.568 413.552L393.245 424.703C393.007 423.119 391.528 422.026 389.944 422.264L227.258 446.727C225.674 446.966 224.582 448.445 224.82 450.029L223.143 438.878C222.905 437.294 223.998 435.815 225.581 435.577L388.267 411.113C389.851 410.875 391.33 411.968 391.568 413.552Z" fill="#672600"/>
</g>
<path d="M407.162 392.398C406.305 387.004 401.263 383.315 395.863 384.127L211.69 411.821C206.29 412.633 202.555 417.642 203.322 423.05C205.562 438.817 210.365 469.74 211.794 478.907C212.056 480.586 212.997 482.072 214.397 483.034L226.996 491.687C228.255 492.552 229.796 492.907 231.307 492.679L400.893 467.178C402.404 466.951 403.773 466.159 404.722 464.962L414.219 452.987C415.275 451.655 415.736 449.958 415.491 448.277C414.636 442.372 412.47 427.463 410.368 413.388C409.2 405.572 408.053 398.013 407.162 392.398Z" stroke="#6B2100" stroke-width="8.59859" stroke-linecap="round" stroke-linejoin="round"/>
<path d="M203.322 423.05C205.562 438.817 210.365 469.74 211.794 478.907C212.056 480.586 212.997 482.072 214.397 483.034L226.996 491.687C228.255 492.552 229.796 492.907 231.307 492.679L400.893 467.178" stroke="#470A00" stroke-width="8.59859" stroke-linecap="round" stroke-linejoin="round"/>
<path d="M399.665 467.363L231.236 492.69L223.145 438.881C222.906 437.295 223.999 435.816 225.584 435.577" stroke="#470A00" stroke-width="8.59859" stroke-linecap="round" stroke-linejoin="round"/>
<path d="M403.888 133.887C403.888 133.887 394.156 126.062 398.493 117.223C403.174 107.681 423.985 105.907 433.084 116.855C442.183 127.804 439.878 146.95 419.683 167.814C399.489 188.678 384.876 201.22 377.736 216.231C370.595 231.241 381.015 242.509 394.023 240.684C404.453 239.221 408.332 232.401 408.332 232.401C408.332 232.401 395.123 235.519 393.879 226.796C392.83 219.436 412.941 208.132 434.206 188.968C447.081 177.365 473.4 152.226 469.071 123.437C465.399 99.0163 441.865 81.1437 411.249 88.0226C380.634 94.9015 379.605 114.383 381.731 122.308C384.636 133.133 398.708 138.231 403.888 133.887Z" fill="url(#paint10_radial_0_1)"/>
<g opacity="0.7">
<path d="M439.887 163.334C418.864 189.157 389.817 205.565 382.357 217.858C374.905 230.139 382.725 242.114 394.018 240.686C381.015 242.511 370.591 231.238 377.733 216.233C384.874 201.218 399.486 188.68 419.684 167.812C439.874 146.955 442.184 127.806 433.088 116.853C423.984 105.911 403.173 107.68 398.489 117.225C394.158 126.057 403.884 133.885 403.884 133.885C403.884 133.885 389.181 133.3 392.101 118.626C395.359 102.253 425.947 91.1049 443.654 108.794C460.129 125.268 452.522 147.823 439.887 163.334Z" fill="url(#paint11_radial_0_1)"/>
</g>
<path d="M417.707 101.377C405.646 98.8499 390.495 105.183 389.091 117.441C388.33 124.084 392.328 135.649 403.888 133.887C403.888 133.887 391.133 120.645 400.803 113.487C410.473 106.33 425.92 107.026 433.084 116.855C433.084 116.855 431.647 104.298 417.707 101.377Z" fill="#FED759"/>
<path d="M403.888 133.887C403.888 133.887 394.156 126.062 398.493 117.223C403.174 107.681 423.985 105.907 433.084 116.855C442.183 127.804 439.878 146.95 419.683 167.814C399.489 188.678 384.876 201.22 377.736 216.231C370.595 231.241 381.015 242.509 394.023 240.684C404.453 239.221 408.332 232.401 408.332 232.401C408.332 232.401 395.123 235.519 393.879 226.796C392.83 219.436 412.941 208.132 434.206 188.968C447.081 177.365 473.4 152.226 469.071 123.437C465.399 99.0163 441.865 81.1437 411.249 88.0226C380.634 94.9015 379.605 114.383 381.731 122.308C384.636 133.133 398.708 138.231 403.888 133.887Z" stroke="#A05700" stroke-width="7.91071" stroke-linecap="round" stroke-linejoin="round"/>
<g opacity="0.7">
<path d="M381.731 122.308C384.636 133.133 398.708 138.231 403.888 133.887C403.888 133.887 394.156 126.062 398.493 117.223C403.174 107.681 423.985 105.907 433.084 116.855C442.183 127.804 439.878 146.95 419.683 167.814C399.489 188.678 384.876 201.22 377.736 216.231" stroke="#7A3A00" stroke-width="7.91071" stroke-linecap="round" stroke-linejoin="round"/>
</g>
<path d="M130.039 175.066C130.039 175.066 137.038 164.726 130.294 157.552C123.013 149.81 102.602 154.234 97.1251 167.374C91.6482 180.515 99.4821 198.136 124.92 212.138C150.357 226.14 168.013 233.83 179.252 246.077C190.491 258.324 183.845 272.158 170.876 274.239C160.477 275.908 154.764 270.531 154.764 270.531C154.764 270.531 168.306 269.626 166.929 260.923C165.767 253.58 143.221 248.69 117.26 236.628C101.542 229.324 68.9941 213.037 64.665 184.248C60.9928 159.828 78.2301 135.824 109.515 133.395C140.8 130.966 147.512 149.283 147.811 157.483C148.218 168.684 136.267 177.695 130.039 175.066Z" fill="url(#paint12_radial_0_1)"/>
<g opacity="0.7">
<path d="M170.88 274.24C182.094 272.284 186.046 258.538 175.312 248.992C164.566 239.437 131.978 232.296 104.29 213.798C87.6518 202.689 73.758 183.367 84.6595 162.776C96.372 140.664 128.417 139.192 135.69 156.183C142.013 170.953 130.04 175.064 130.04 175.064C130.04 175.064 137.034 164.721 130.297 157.554C123.013 149.809 102.603 154.238 97.1287 167.372C91.6465 180.517 99.4857 198.14 124.917 212.137C150.359 226.142 168.012 233.828 179.253 246.079C190.492 258.32 183.845 272.16 170.88 274.24Z" fill="url(#paint13_radial_0_1)"/>
</g>
<path d="M95.9996 170.934C97.7533 154.776 111.25 142.879 126.502 145.712C143.168 148.807 141.604 169.237 132.954 174.402C132.954 174.402 136.958 154.835 120.752 154.295C104.546 153.755 95.9996 170.934 95.9996 170.934Z" fill="#FED759"/>
<path d="M130.039 175.066C130.039 175.066 137.038 164.726 130.294 157.552C123.013 149.81 102.602 154.234 97.1251 167.374C91.6482 180.515 99.4821 198.136 124.92 212.138C150.357 226.14 168.013 233.83 179.252 246.077C190.491 258.324 183.845 272.158 170.876 274.239C160.477 275.908 154.764 270.531 154.764 270.531C154.764 270.531 168.306 269.626 166.929 260.923C165.767 253.58 143.221 248.69 117.26 236.628C101.542 229.324 68.9941 213.037 64.665 184.248C60.9928 159.828 78.2301 135.824 109.515 133.395C140.8 130.966 147.512 149.283 147.811 157.483C148.218 168.684 136.267 177.695 130.039 175.066Z" stroke="#A05700" stroke-width="7.91071" stroke-linecap="round" stroke-linejoin="round"/>
<g opacity="0.7">
<path d="M130.039 175.066C130.039 175.066 137.038 164.726 130.294 157.552C123.013 149.809 102.602 154.234 97.1251 167.374C91.6482 180.515 99.4821 198.136 124.92 212.138C150.357 226.14 168.013 233.83 179.252 246.077" stroke="#7A3A00" stroke-width="7.91071" stroke-linecap="round" stroke-linejoin="round"/>
</g>
<path d="M376.108 82.6692C384.858 76.8221 379.634 72.3442 370.971 70.8107C335.108 64.4627 277.476 71.1778 255.125 74.5387C228.75 78.5049 134.909 98.7153 138.077 110.627C139.409 115.638 141.883 117.89 141.883 117.89C141.883 117.89 150.626 194.097 182.3 250.987C208.523 298.086 253.947 315.393 290.516 309.894C327.085 304.395 365.41 274.495 376.622 221.766C390.164 158.077 376.108 82.6692 376.108 82.6692Z" fill="url(#paint14_radial_0_1)"/>
<g opacity="0.6">
<path d="M376.108 82.6692C338.394 77.1935 285.326 81.6481 256.838 85.9319C226.006 90.5682 166.952 104.06 141.883 117.89" stroke="#FED759" stroke-width="5.93303" stroke-linecap="round" stroke-linejoin="round"/>
</g>
<path d="M181.824 90.9557C181.824 90.9557 221.744 305.345 290.133 295.061C358.521 284.777 328.382 68.9175 328.382 68.9175C328.382 68.9175 236.376 74.1751 181.824 90.9557Z" fill="url(#paint15_radial_0_1)"/>
<g opacity="0.8">
<path d="M253.387 75.7502C263.631 156.444 266.461 175.268 281.293 273.91C284.788 297.148 255.108 287.271 228.385 192.418C215.516 146.74 210.296 111.616 208.328 94.7356C208.328 94.7356 200.889 90.3088 207.39 84.667L253.387 75.7502Z" fill="url(#paint16_linear_0_1)"/>
</g>
<g opacity="0.3">
<path d="M376.108 82.6692C338.394 77.1935 285.326 81.6481 256.838 85.9319C226.006 90.5682 166.952 104.06 141.883 117.89" stroke="#FED759" stroke-width="5.93303" stroke-linecap="round" stroke-linejoin="round"/>
</g>
<g opacity="0.4">
<path d="M376.626 221.77C365.408 274.5 327.08 304.395 290.513 309.894C253.946 315.393 208.521 298.092 182.301 250.991C150.62 194.101 141.88 117.89 141.88 117.89C122.17 104.26 172.636 91.5831 172.636 91.5831C128.255 118.171 185.572 98.5784 185.572 98.5784C154.813 106.906 156.992 119.425 157.38 124.076C157.937 130.76 169.846 198.444 191.893 240.178C205.437 265.819 220.089 278.687 240.191 286.719C254.924 292.606 274.682 293.127 288.245 291.088C303.483 288.796 319.232 282.275 332.614 269.981C347.397 256.401 359.359 240.169 364.268 214.258C372.325 171.793 365.023 102.814 362.889 91.8765C360.723 80.7774 345.189 76.3307 320.575 77.2808C320.575 77.2808 375.482 77.8519 338.399 68.3681C338.399 68.3681 367.399 68.1736 375.981 72.0065C384.727 75.9127 376.106 82.6685 376.106 82.6685C376.106 82.6685 390.165 158.08 376.626 221.77Z" fill="url(#paint17_linear_0_1)"/>
</g>
<g opacity="0.8">
<path d="M265.679 308.424C259.145 306.587 245.113 289.034 254.678 290.672C264.775 292.401 277.482 292.707 287.844 291.147C297.741 289.657 308.319 285.983 314.069 282.861C330.681 273.841 320.252 299.617 310.284 303.597C297.73 308.61 276.139 311.363 265.679 308.424Z" fill="url(#paint18_radial_0_1)"/>
</g>
<g opacity="0.3">
<path d="M320.872 239.296C300.23 242.891 290.375 254.793 238.771 250.363C218.566 248.629 244.022 274.583 281.259 269.016C314.572 264.035 340.685 235.846 320.872 239.296Z" fill="#FFE471"/>
</g>
<path d="M141.883 117.89C141.883 117.89 135.973 115.565 137.042 110.409C138.616 102.824 175.469 86.5127 255.124 74.5348C321.371 64.5732 375.749 68.311 379.776 74.038C383.803 79.7649 376.108 82.6692 376.108 82.6692" stroke="#A05700" stroke-width="7.91071" stroke-linecap="round" stroke-linejoin="round"/>
<path d="M141.883 117.89C141.883 117.89 150.626 194.097 182.3 250.987C208.523 298.086 253.947 315.393 290.516 309.894C327.085 304.395 365.41 274.495 376.622 221.766C390.164 158.077 376.108 82.6692 376.108 82.6692" stroke="#935400" stroke-width="7.91071" stroke-linecap="round" stroke-linejoin="round"/>
<path d="M141.883 117.89C141.883 117.89 150.626 194.097 182.3 250.987C208.523 298.086 253.947 315.393 290.516 309.894C327.085 304.395 365.41 274.495 376.622 221.766" stroke="#7A3A00" stroke-width="7.91071" stroke-linecap="round" stroke-linejoin="round"/>
<path d="M363.175 376.246C360.846 374.303 352.668 373.309 352.668 373.309C352.668 373.309 351.435 368.203 350.751 366.391C349.266 362.457 344.433 364.271 337.434 362.629C323.51 359.362 316.921 340.752 313.948 320.985L292.44 322.689L271.382 327.386C274.354 347.152 273.528 366.878 261.181 374.095C254.974 377.723 249.821 377.41 249.559 381.608C249.437 383.54 249.761 388.783 249.761 388.783C249.761 388.783 242.239 392.138 240.583 394.68C238.928 397.223 239.955 405.751 240.852 406.635C241.749 407.519 254.452 413.763 304.992 406.164C355.532 398.564 365.837 388.86 366.434 387.751C367.031 386.642 365.505 378.189 363.175 376.246Z" fill="url(#paint19_linear_0_1)"/>
<path d="M309.415 340.129C316.416 386.681 304.481 388.301 302.006 388.673C299.962 388.981 286.173 381.662 280.585 344.499C277.408 323.37 291.061 325.178 292.428 324.972C293.794 324.767 306.367 319.858 309.415 340.129Z" fill="url(#paint20_radial_0_1)"/>
<g opacity="0.8">
<path d="M293.521 329.898C296.144 350.562 296.303 351.616 300.101 376.876C300.996 382.827 293.956 385.835 287.113 361.544C283.818 349.847 281.992 335.792 281.488 331.47" fill="url(#paint21_linear_0_1)"/>
</g>
<path d="M366.431 387.754C365.838 388.864 355.528 398.564 304.989 406.164C254.45 413.764 241.753 407.522 240.851 406.638C239.958 405.752 238.926 397.227 240.582 394.678C242.24 392.138 249.764 388.787 249.764 388.787C249.764 388.787 249.435 383.536 249.555 381.608C249.662 379.991 250.047 376.103 251.382 375.342C251.382 375.342 264.871 378.404 300.02 373.119C335.17 367.833 345.911 360.738 345.911 360.738C348.088 360.99 350.033 364.478 350.75 366.391C351.432 368.198 352.671 373.312 352.671 373.312C352.671 373.312 360.849 374.303 363.17 376.244C365.503 378.193 367.034 386.644 366.431 387.754Z" fill="url(#paint22_radial_0_1)"/>
<path d="M339.503 390.032C340.122 394.149 325.134 400.46 305.909 403.351C286.684 406.242 270.502 404.618 269.883 400.501C269.264 396.385 285.329 397.231 304.554 394.34C323.779 391.449 338.884 385.916 339.503 390.032Z" fill="url(#paint23_radial_0_1)"/>
<g opacity="0.5">
<path d="M274.138 362.655C274.138 362.655 271.067 377.266 298.466 373.386C324.471 369.703 323.826 359.318 318.735 350.495C318.735 350.495 329.611 362.228 348.374 365.291C348.374 365.291 340.375 373.035 300.893 378.905C282.397 381.655 270.877 382.246 261.838 382.108C255.934 382.017 256.349 395.127 273.326 397.565C274.404 397.72 248.01 396.705 254.969 410.017C254.969 410.017 245.852 411.333 240.852 406.635C238.868 404.77 241.954 390.294 249.761 388.783L251.449 380.684C251.449 380.684 264.341 371.76 274.138 362.655Z" fill="#894700"/>
</g>
<path d="M332.736 377.823C333.355 381.939 320.232 385.971 303.67 388.461C287.108 390.952 273.378 390.958 272.759 386.842C272.14 382.726 285.654 381.282 302.216 378.791C318.778 376.301 332.117 373.707 332.736 377.823Z" fill="url(#paint24_radial_0_1)"/>
<g opacity="0.7">
<path d="M298.25 379.379C298.25 379.379 300.547 386.603 301.533 392.838C302.742 400.491 303.188 408.473 301.051 406.739C301.051 406.739 279.598 410.038 279.68 402.085C279.701 400.031 281.448 398.296 284.592 396.549C286.387 395.552 287.783 393.534 283.591 391.907C280.64 390.76 278.124 388.615 279.244 385.513C281.167 380.188 298.25 379.379 298.25 379.379Z" fill="url(#paint25_linear_0_1)"/>
</g>
<g opacity="0.5">
<path d="M315.755 330.68C310.187 332.817 302.466 334.598 294.41 335.81C286.353 337.021 278.46 337.588 272.51 337.183C272.255 333.961 271.87 330.669 271.376 327.383L292.436 322.686L313.947 320.981C314.441 324.267 315.041 327.527 315.755 330.68Z" fill="#7C3200"/>
</g>
<g opacity="0.7">
<path d="M240.583 394.68C240.583 394.68 264.835 397.317 302.803 391.608C340.772 385.898 363.175 376.246 363.175 376.246" stroke="#914500" stroke-width="5.93303" stroke-linecap="round" stroke-linejoin="round"/>
</g>
<g opacity="0.7">
<path d="M251.828 378.28C251.828 378.28 265.313 381.34 300.465 376.054C335.616 370.769 346.351 363.672 346.351 363.672" stroke="#914500" stroke-width="5.93303" stroke-linecap="round" stroke-linejoin="round"/>
</g>
<path d="M363.175 376.246C360.846 374.303 352.668 373.309 352.668 373.309C352.668 373.309 351.435 368.203 350.751 366.391C349.266 362.457 344.433 364.271 337.434 362.629C323.51 359.362 316.921 340.752 313.948 320.985L292.44 322.689L271.382 327.386C274.354 347.152 273.528 366.878 261.181 374.095C254.974 377.723 249.821 377.41 249.559 381.608C249.437 383.54 249.761 388.783 249.761 388.783C249.761 388.783 242.239 392.138 240.583 394.68C238.928 397.223 239.955 405.751 240.852 406.635C241.749 407.519 254.452 413.763 304.992 406.164C355.532 398.564 365.837 388.86 366.434 387.751C367.031 386.642 365.505 378.189 363.175 376.246Z" stroke="#A05700" stroke-width="7.91071" stroke-linecap="round" stroke-linejoin="round"/>
<path d="M271.382 327.386C274.354 347.152 273.528 366.878 261.181 374.095C254.974 377.723 249.821 377.41 249.559 381.608C249.437 383.54 249.761 388.783 249.761 388.783C249.761 388.783 242.239 392.138 240.583 394.68C238.928 397.223 239.955 405.751 240.852 406.635C240.858 406.64 240.863 406.646 240.87 406.652C241.905 407.596 254.761 413.717 304.992 406.164C355.532 398.564 365.837 388.86 366.434 387.751" stroke="#7A3A00" stroke-width="7.91071" stroke-linecap="round" stroke-linejoin="round"/>
<path d="M317.877 308.189C317.877 308.189 317.524 303.978 312.826 302.44C308.129 300.903 305.601 302.723 289.795 305.1C276.743 307.062 271.038 306.48 267 309.331C262.962 312.183 263.862 316.312 263.862 316.312C263.862 316.312 257.54 321.525 261.988 325.346C265.886 328.695 279.211 328.498 293.002 326.424C306.792 324.35 319.586 320.62 322.326 316.273C325.454 311.312 317.877 308.189 317.877 308.189Z" fill="url(#paint26_radial_0_1)"/>
<path d="M311.649 309.039C312.65 315.696 309.364 326.964 293.44 329.358C280.281 331.337 271.061 321.95 270.06 315.293C269.059 308.636 281.02 306.574 289.815 305.252C298.61 303.929 310.648 302.382 311.649 309.039Z" fill="url(#paint27_radial_0_1)"/>
<g opacity="0.8">
<path d="M290.254 308.173C291.041 316.276 291.021 316.139 292.504 326.001C292.828 328.152 275.173 327.347 278.296 318.322C278.783 316.915 278.629 315.391 277.967 314.058C277.393 312.899 277.169 311.361 278.567 309.837" fill="url(#paint28_linear_0_1)"/>
</g>
<g opacity="0.6">
<path d="M263.862 316.312C263.862 316.312 290.115 317.774 317.877 308.189" stroke="#914500" stroke-width="5.93303" stroke-linecap="round" stroke-linejoin="round"/>
</g>
<path d="M317.877 308.189C317.877 308.189 317.524 303.978 312.826 302.44C308.129 300.903 305.601 302.723 289.795 305.1C276.743 307.062 271.038 306.48 267 309.331C262.962 312.183 263.862 316.312 263.862 316.312C263.862 316.312 257.54 321.525 261.988 325.346C265.886 328.695 279.211 328.498 293.002 326.424C306.792 324.35 319.586 320.62 322.326 316.273C325.454 311.312 317.877 308.189 317.877 308.189Z" stroke="#9E6100" stroke-width="7.91071" stroke-linecap="round" stroke-linejoin="round"/>
<path d="M261.988 325.346C265.886 328.695 279.211 328.498 293.002 326.424C306.792 324.35 319.586 320.62 322.326 316.273" stroke="#7A3A00" stroke-width="7.91071" stroke-linecap="round" stroke-linejoin="round"/>
</g>
</g>
<path d="M192.75 375H621.75L559.608 812.171L217.825 889L192.75 375Z" fill="white"/>
<path d="M42.75 375H192.827L217.75 889L86.0937 812.171L42.75 375Z" fill="white"/>
<path d="M43.2713 375H192.75L146.881 534L15.75 457.464L43.2713 375Z" fill="white"/>
<path d="M203.5 391H597L540 795L226.5 866L203.5 391Z" fill="url(#paint29_linear_0_1)"/>
<path d="M355 391H400.5L363.75 617.25L327 843.5L285.5 852.5L320.25 621.75L355 391Z" fill="white" fill-opacity="0.17"/>
<path d="M286 608L514 580V634L286 664V608Z" fill="#303030"/>
<path d="M65 391H203.5L226.5 866L105 795L65 391Z" fill="url(#paint30_linear_0_1)"/>
<path d="M65 391H203.5L161 538.5L39.5 467.5L65 391Z" fill="url(#paint31_linear_0_1)"/>
<path d="M203.75 391H597L553 516.973L240 539L203.75 391Z" fill="#C03567"/>
<path d="M86.5 607L217.114 675L226.75 866L105 795.5L86.5 607Z" fill="white" fill-opacity="0.17"/>
<path d="M217 675L314.5 660L285.5 852.5L226.5 866L217 675Z" fill="white" fill-opacity="0.17"/>
<path d="M357.5 654.5L563.5 627.5L540 795L327 843L357.5 654.5Z" fill="white" fill-opacity="0.17"/>
<path d="M291 598.347C291 593.296 294.767 589.037 299.781 588.422L507.781 562.878C513.743 562.146 519 566.797 519 572.803V606.73C519 611.748 515.28 615.989 510.305 616.644L302.305 644.013C296.315 644.801 291 640.139 291 634.098V598.347Z" fill="#A82E5E"/>
<defs>
<radialGradient id="paint0_radial_0_1" cx="0" cy="0" r="1" gradientUnits="userSpaceOnUse" gradientTransform="translate(366.56 769.826) rotate(12.311) scale(38.4707)">
<stop stop-color="#FFFF8D"/>
<stop offset="0.5" stop-color="#FFE346"/>
<stop offset="1" stop-color="#FFC800"/>
</radialGradient>
<linearGradient id="paint1_linear_0_1" x1="439.706" y1="451.688" x2="456.966" y2="402.303" gradientUnits="userSpaceOnUse">
<stop stop-color="white"/>
<stop offset="0.45" stop-color="#F3F1F9"/>
<stop offset="0.89" stop-color="#E7E4F2"/>
</linearGradient>
<linearGradient id="paint2_linear_0_1" x1="560.405" y1="227.293" x2="541.871" y2="306.038" gradientUnits="userSpaceOnUse">
<stop offset="0.33" stop-color="#FDFF04"/>
<stop offset="0.77" stop-color="#FECD02"/>
<stop offset="0.94" stop-color="#FF9A00"/>
</linearGradient>
<linearGradient id="paint3_linear_0_1" x1="473.742" y1="207.133" x2="455.207" y2="285.877" gradientUnits="userSpaceOnUse">
<stop offset="0.33" stop-color="#FDFF04"/>
<stop offset="0.77" stop-color="#FECD02"/>
<stop offset="0.94" stop-color="#FF9A00"/>
</linearGradient>
<linearGradient id="paint4_linear_0_1" x1="560.405" y1="227.293" x2="541.871" y2="306.038" gradientUnits="userSpaceOnUse">
<stop offset="0.33" stop-color="#FDFF04"/>
<stop offset="0.77" stop-color="#FECD02"/>
<stop offset="0.94" stop-color="#FF9A00"/>
</linearGradient>
<linearGradient id="paint5_linear_0_1" x1="473.742" y1="207.133" x2="455.207" y2="285.877" gradientUnits="userSpaceOnUse">
<stop offset="0.33" stop-color="#FDFF04"/>
<stop offset="0.77" stop-color="#FECD02"/>
<stop offset="0.94" stop-color="#FF9A00"/>
</linearGradient>
<linearGradient id="paint6_linear_0_1" x1="426.409" y1="345.266" x2="409.164" y2="405.437" gradientUnits="userSpaceOnUse">
<stop stop-color="#D9D7EE"/>
<stop offset="0.72" stop-color="#BAB8D6"/>
<stop offset="1" stop-color="#9C98BE"/>
</linearGradient>
<linearGradient id="paint7_linear_0_1" x1="177.824" y1="505.02" x2="455.216" y2="463.308" gradientUnits="userSpaceOnUse">
<stop offset="0.14" stop-color="#853301"/>
<stop offset="0.57" stop-color="#933C01"/>
<stop offset="0.92" stop-color="#A24500"/>
</linearGradient>
<linearGradient id="paint8_linear_0_1" x1="208.307" y1="454.781" x2="412.248" y2="424.114" gradientUnits="userSpaceOnUse">
<stop stop-color="#843D1C"/>
<stop offset="0.51" stop-color="#9A4B21"/>
<stop offset="0.92" stop-color="#B05926"/>
</linearGradient>
<linearGradient id="paint9_linear_0_1" x1="246.717" y1="428.351" x2="382.589" y2="479.847" gradientUnits="userSpaceOnUse">
<stop offset="0.02" stop-color="#E6AE45"/>
<stop offset="0.14" stop-color="#F3D06B"/>
<stop offset="0.34" stop-color="#FFF291"/>
<stop offset="0.47" stop-color="#EAC56C"/>
<stop offset="0.62" stop-color="#D59746"/>
<stop offset="0.79" stop-color="#EAB14F"/>
<stop offset="0.88" stop-color="#FECC57"/>
</linearGradient>
<radialGradient id="paint10_radial_0_1" cx="0" cy="0" r="1" gradientUnits="userSpaceOnUse" gradientTransform="translate(417.164 166.104) rotate(-8.55161) scale(85.3201 85.3395)">
<stop offset="0.14" stop-color="#FFE978"/>
<stop offset="0.57" stop-color="#E8B63C"/>
<stop offset="0.92" stop-color="#D08201"/>
</radialGradient>
<radialGradient id="paint11_radial_0_1" cx="0" cy="0" r="1" gradientUnits="userSpaceOnUse" gradientTransform="translate(424.633 135.979) rotate(-8.55161) scale(76.2634 76.2807)">
<stop offset="0.14" stop-color="#7C3200"/>
<stop offset="0.57" stop-color="#A65A01"/>
<stop offset="0.92" stop-color="#D08201"/>
</radialGradient>
<radialGradient id="paint12_radial_0_1" cx="0" cy="0" r="1" gradientUnits="userSpaceOnUse" gradientTransform="translate(125.41 213.976) rotate(-8.55161) scale(80.951 80.9694)">
<stop offset="0.14" stop-color="#FFE978"/>
<stop offset="0.57" stop-color="#E8B63C"/>
<stop offset="0.92" stop-color="#D08201"/>
</radialGradient>
<radialGradient id="paint13_radial_0_1" cx="0" cy="0" r="1" gradientUnits="userSpaceOnUse" gradientTransform="translate(131.96 210.99) rotate(-8.55161) scale(58.1677 58.181)">
<stop offset="0.14" stop-color="#7C3200"/>
<stop offset="0.57" stop-color="#A65A01"/>
<stop offset="0.92" stop-color="#D08201"/>
</radialGradient>
<radialGradient id="paint14_radial_0_1" cx="0" cy="0" r="1" gradientUnits="userSpaceOnUse" gradientTransform="translate(279.159 199.169) rotate(-8.55161) scale(168.438 168.477)">
<stop offset="0.44" stop-color="#FEDA59"/>
<stop offset="0.7" stop-color="#E7AE2D"/>
<stop offset="0.92" stop-color="#D08201"/>
</radialGradient>
<radialGradient id="paint15_radial_0_1" cx="0" cy="0" r="1" gradientUnits="userSpaceOnUse" gradientTransform="translate(253.915 67.5785) rotate(-8.55161) scale(67.2526 229.536)">
<stop stop-color="#F5BF52"/>
<stop offset="0.53" stop-color="#DB9F2A"/>
<stop offset="0.82" stop-color="#C07F01"/>
<stop offset="0.91" stop-color="#C38301" stop-opacity="0.5"/>
<stop offset="1" stop-color="#C68701" stop-opacity="0"/>
</radialGradient>
<linearGradient id="paint16_linear_0_1" x1="227.285" y1="186.656" x2="264.357" y2="181.081" gradientUnits="userSpaceOnUse">
<stop offset="0.09" stop-color="#592A00"/>
<stop offset="0.75" stop-color="#6C3600" stop-opacity="0.5"/>
<stop offset="1" stop-color="#7F4200" stop-opacity="0"/>
</linearGradient>
<linearGradient id="paint17_linear_0_1" x1="259.026" y1="91.8764" x2="289.13" y2="292.074" gradientUnits="userSpaceOnUse">
<stop offset="0.36" stop-color="#A75602"/>
<stop offset="0.61" stop-color="#984F01"/>
<stop offset="0.69" stop-color="#894700"/>
<stop offset="0.87" stop-color="#793900"/>
<stop offset="1" stop-color="#682C00"/>
</linearGradient>
<radialGradient id="paint18_radial_0_1" cx="0" cy="0" r="1" gradientUnits="userSpaceOnUse" gradientTransform="translate(287.108 284.771) rotate(-8.55161) scale(32.5469 32.5543)">
<stop offset="0.04" stop-color="#FFC952"/>
<stop offset="0.12" stop-color="#C28B29"/>
<stop offset="0.29" stop-color="#854E00"/>
<stop offset="0.5" stop-color="#C28A29"/>
<stop offset="0.69" stop-color="#FFC752"/>
<stop offset="0.84" stop-color="#FFC752" stop-opacity="0.5"/>
<stop offset="1" stop-color="#FFC852" stop-opacity="0"/>
</radialGradient>
<linearGradient id="paint19_linear_0_1" x1="293.004" y1="337.784" x2="298.797" y2="367.395" gradientUnits="userSpaceOnUse">
<stop offset="0.14" stop-color="#FED059"/>
<stop offset="0.57" stop-color="#E7A92D"/>
<stop offset="0.92" stop-color="#D08201"/>
</linearGradient>
<radialGradient id="paint20_radial_0_1" cx="0" cy="0" r="1" gradientUnits="userSpaceOnUse" gradientTransform="translate(296.666 353.33) rotate(-8.55161) scale(13.5246 58.816)">
<stop stop-color="#F5BF52"/>
<stop offset="0.33" stop-color="#DB9F2A"/>
<stop offset="0.63" stop-color="#C07F01"/>
<stop offset="0.83" stop-color="#C38301" stop-opacity="0.5"/>
<stop offset="1" stop-color="#C68701" stop-opacity="0"/>
</radialGradient>
<linearGradient id="paint21_linear_0_1" x1="287.829" y1="356.564" x2="296.879" y2="355.203" gradientUnits="userSpaceOnUse">
<stop offset="0.09" stop-color="#592A00"/>
<stop offset="0.75" stop-color="#6C3600" stop-opacity="0.5"/>
<stop offset="1" stop-color="#7F4200" stop-opacity="0"/>
</linearGradient>
<radialGradient id="paint22_radial_0_1" cx="0" cy="0" r="1" gradientUnits="userSpaceOnUse" gradientTransform="translate(302.459 387.366) rotate(-8.55161) scale(61.9654 61.9795)">
<stop offset="0.14" stop-color="#FFE978"/>
<stop offset="0.57" stop-color="#E8B63C"/>
<stop offset="0.92" stop-color="#D08201"/>
</radialGradient>
<radialGradient id="paint23_radial_0_1" cx="0" cy="0" r="1" gradientUnits="userSpaceOnUse" gradientTransform="translate(437.915 378.53) rotate(-8.55161) scale(178.786 178.827)">
<stop stop-color="#DAA32A"/>
<stop offset="0.18" stop-color="#CD9115"/>
<stop offset="0.56" stop-color="#C07F01"/>
<stop offset="0.8" stop-color="#C38301" stop-opacity="0.5"/>
<stop offset="1" stop-color="#C68701" stop-opacity="0"/>
</radialGradient>
<radialGradient id="paint24_radial_0_1" cx="0" cy="0" r="1" gradientUnits="userSpaceOnUse" gradientTransform="translate(303.907 383.697) rotate(-8.55161) scale(28.5635 28.57)">
<stop stop-color="#DAA32A"/>
<stop offset="0.18" stop-color="#CD9115"/>
<stop offset="0.56" stop-color="#C07F01"/>
<stop offset="0.8" stop-color="#C38301" stop-opacity="0.5"/>
<stop offset="1" stop-color="#C68701" stop-opacity="0"/>
</radialGradient>
<linearGradient id="paint25_linear_0_1" x1="282.809" y1="396.321" x2="299.827" y2="393.762" gradientUnits="userSpaceOnUse">
<stop offset="0.09" stop-color="#592A00"/>
<stop offset="0.75" stop-color="#6C3600" stop-opacity="0.5"/>
<stop offset="1" stop-color="#7F4200" stop-opacity="0"/>
</linearGradient>
<radialGradient id="paint26_radial_0_1" cx="0" cy="0" r="1" gradientUnits="userSpaceOnUse" gradientTransform="translate(292.158 318.858) rotate(-8.55161) scale(31.5364 31.5436)">
<stop offset="0.44" stop-color="#FCDA5F"/>
<stop offset="0.7" stop-color="#E6AE30"/>
<stop offset="0.92" stop-color="#D08201"/>
</radialGradient>
<radialGradient id="paint27_radial_0_1" cx="0" cy="0" r="1" gradientUnits="userSpaceOnUse" gradientTransform="translate(291.33 315.156) rotate(-8.55161) scale(21.2979 21.3028)">
<stop stop-color="#F5BF52" stop-opacity="0"/>
<stop offset="0.33" stop-color="#DB9F2A" stop-opacity="0.5"/>
<stop offset="0.63" stop-color="#C07F01"/>
<stop offset="0.83" stop-color="#C38301" stop-opacity="0.5"/>
<stop offset="1" stop-color="#C68701" stop-opacity="0"/>
</radialGradient>
<linearGradient id="paint28_linear_0_1" x1="280.286" y1="319.696" x2="290.669" y2="318.134" gradientUnits="userSpaceOnUse">
<stop offset="0.09" stop-color="#592A00"/>
<stop offset="0.75" stop-color="#6C3600" stop-opacity="0.5"/>
<stop offset="1" stop-color="#7F4200" stop-opacity="0"/>
</linearGradient>
<linearGradient id="paint29_linear_0_1" x1="400.25" y1="391" x2="400.25" y2="866" gradientUnits="userSpaceOnUse">
<stop stop-color="#FF4C8C"/>
<stop offset="1" stop-color="#992E54"/>
</linearGradient>
<linearGradient id="paint30_linear_0_1" x1="145.75" y1="391" x2="145.75" y2="866" gradientUnits="userSpaceOnUse">
<stop stop-color="#A82E5E"/>
<stop offset="1" stop-color="#421225"/>
</linearGradient>
<linearGradient id="paint31_linear_0_1" x1="133.75" y1="291" x2="133.75" y2="766" gradientUnits="userSpaceOnUse">
<stop stop-color="#A82E5E"/>
<stop offset="1" stop-color="#421225"/>
</linearGradient>
<clipPath id="clip0_0_1">
<rect width="312" height="312" fill="white" transform="translate(344.524 171) rotate(12.311)"/>
</clipPath>
<clipPath id="clip1_0_1">
<rect width="256" height="256" fill="white" transform="translate(0 299.945) rotate(-19.1419)"/>
</clipPath>
<clipPath id="clip2_0_1">
<rect width="512" height="512" fill="white" transform="translate(0 76.1345) rotate(-8.55161)"/>
</clipPath>
</defs>
</svg>
