<svg width="177" height="180" viewBox="0 0 177 180" fill="none" xmlns="http://www.w3.org/2000/svg">
<path fill-rule="evenodd" clip-rule="evenodd" d="M163.059 121.257L153.138 138.208L130.617 130.691L128.319 132.777C121.765 138.738 114.237 143.058 105.946 145.599L102.939 146.531L98.3012 169.412H78.3318L73.6942 146.52L70.687 145.588C62.3965 143.047 54.8682 138.727 48.3142 132.766L46.0165 130.68L23.4953 138.198L13.5742 121.246L31.3623 105.829L30.6636 102.738C29.6895 98.4495 29.2024 94.1613 29.2024 90.0001C29.2024 85.8389 29.6894 81.5507 30.6636 77.2625L31.3624 74.1707L13.5742 58.7542L23.4953 41.8025L46.0165 49.3095L48.3142 47.2236C54.8682 41.2625 62.3965 36.9425 70.687 34.3907L73.6942 33.4695L78.3318 10.5883H98.3012L102.939 33.4802L105.946 34.4013C114.237 36.9531 121.765 41.2625 128.319 47.2342L130.617 49.3202L153.138 41.8025L163.059 58.7542L145.271 74.1707L145.969 77.2626C146.943 81.5507 147.431 85.8389 147.431 90.0001C147.431 94.1613 146.944 98.4495 145.969 102.738L145.271 105.829L163.059 121.257ZM158.019 90.0001C158.019 86.0825 157.659 82.0801 156.928 78.0672L176.633 60.9989L157.934 29.0437L133.073 37.3342C126.794 32.1248 119.637 28.0166 112.087 25.2954L106.962 0H69.6706L64.5459 25.2847C56.9118 28.0165 49.8812 32.0612 43.5494 37.3236L18.6989 29.0437L0 60.9989L19.6941 78.0672C18.9741 82.0801 18.6141 86.0825 18.6141 90.0001C18.6141 93.9178 18.9741 97.9201 19.6941 101.922L9.37498e-05 119.001L18.6989 150.957L43.5601 142.655C49.8389 147.875 56.9966 151.973 64.546 154.705L69.6707 180H106.962L112.087 154.715C119.711 151.973 126.752 147.939 133.073 142.666L157.934 150.967L176.633 119.012L156.928 101.933C157.659 97.9201 158.019 93.9178 158.019 90.0001ZM88.3153 52.9402C67.8802 52.9402 51.2566 69.5638 51.2566 89.9991C51.2566 110.434 67.8802 127.058 88.3154 127.058C108.751 127.058 125.374 110.434 125.374 89.9991C125.374 69.5638 108.751 52.9402 88.3153 52.9402ZM88.3154 116.47C73.7248 116.47 61.8448 104.59 61.8448 89.9991C61.8448 75.4085 73.7248 63.5285 88.3154 63.5285C102.906 63.5285 114.786 75.4085 114.786 89.9991C114.786 104.59 102.906 116.47 88.3154 116.47Z" fill="black"/>
</svg>
