<svg width="170" height="160" viewBox="0 0 170 160" fill="none" xmlns="http://www.w3.org/2000/svg">
<path d="M140.726 94.4084L140.749 77.1421C140.75 76.0739 141.59 75.1953 142.658 75.1467L162.133 74.2595C163.947 74.1768 164.721 71.9143 163.337 70.7379L86.5916 5.4764C85.8479 4.84394 84.7562 4.8409 84.0089 5.46921L5.72689 71.2894C4.29819 72.4906 5.14816 74.8209 7.01476 74.8202L28.6061 74.8119C29.7112 74.8115 30.6072 75.7075 30.6068 76.8126L30.5832 152.381C30.5829 153.486 31.4789 154.382 32.584 154.382L66.2097 154.369C67.3137 154.368 68.2086 153.473 68.2089 152.369L68.2209 113.963C68.2212 112.859 69.1161 111.964 70.2201 111.964L85.483 111.958L100.574 111.952C101.679 111.952 102.575 112.847 102.574 113.953L102.562 152.353C102.562 153.459 103.458 154.355 104.563 154.354L138.727 154.341C139.831 154.341 140.726 153.445 140.726 152.341L140.726 111.951" stroke="black" stroke-width="10" stroke-linecap="round"/>
</svg>
