<svg width="175" height="154" viewBox="0 0 175 154" fill="none" xmlns="http://www.w3.org/2000/svg">
<path d="M84.0029 42.6284L145.382 4.98941C146.017 4.60021 146.88 4.97447 146.983 5.68403L152.791 45.497" stroke="black" stroke-width="10"/>
<path d="M22.4491 42.5391L94.9062 13.702C95.2525 13.5642 95.6567 13.6253 95.9554 13.8606L109.5 24.5332" stroke="black" stroke-width="10"/>
<path d="M167.687 42.8696H7C5.89543 42.8696 5 43.765 5 44.8696L5.00023 146.855C5.00023 147.96 5.89566 148.855 7.00023 148.855L167.687 148.855V42.8696Z" stroke="black" stroke-width="10"/>
<path d="M169.757 80.3542H98.6961C97.5915 80.3542 96.6961 81.2496 96.6961 82.3542L96.6962 109.37C96.6962 110.475 97.5916 111.37 98.6962 111.37H169.757V80.3542Z" stroke="black" stroke-width="10"/>
<ellipse cx="114.014" cy="95.8623" rx="4.33846" ry="4.03767" fill="black"/>
</svg>
